<svg xmlns="http://www.w3.org/2000/svg" width="24" height="24" fill="none" viewBox="0 0 24 24"><mask id="svg-3658710139-__a" width="20" height="20" x="2" y="2" maskUnits="userSpaceOnUse" style="mask-type: alpha;"><path fill="#fff" d="M11.8 8.6a3.2 3.2 0 1 0 0 6.4 3.2 3.2 0 0 0 0-6.4Zm0 1.6a1.6 1.6 0 1 1 0 3.2 1.6 1.6 0 0 1 0-3.2Zm0-8a2.4 2.4 0 0 0-2.4 2.4v.136l-.008.086a.519.519 0 0 1-.161.293l-.064.048-.05.011a.8.8 0 0 0-.104.038.52.52 0 0 1-.574-.104l-.041-.042a2.4 2.4 0 1 0-3.395 3.396l.047.048a.517.517 0 0 1 .098.567c-.093.247-.281.382-.495.387H4.6a2.4 2.4 0 1 0 0 4.8h.136c.204 0 .391.125.473.315.089.202.048.43-.1.582l-.043.041a2.4 2.4 0 1 0 3.396 3.395l.048-.047a.517.517 0 0 1 .567-.098c.247.092.382.281.387.495V19a2.4 2.4 0 1 0 4.8 0v-.136c0-.204.125-.391.315-.473a.523.523 0 0 1 .582.1l.041.043a2.4 2.4 0 1 0 3.395-3.396l-.047-.048a.517.517 0 0 1-.098-.567.523.523 0 0 1 .48-.323H19a2.4 2.4 0 1 0 0-4.8h-.136l-.086-.008a.52.52 0 0 1-.293-.161l-.049-.064-.01-.05a.797.797 0 0 0-.038-.104.52.52 0 0 1 .104-.574l.042-.041a2.4 2.4 0 1 0-3.396-3.395l-.048.047a.517.517 0 0 1-.567.098.523.523 0 0 1-.323-.48V4.6a2.4 2.4 0 0 0-2.4-2.4Zm0 1.6a.8.8 0 0 1 .8.8v.072c.003.848.508 1.61 1.285 1.943a2.117 2.117 0 0 0 2.33-.427l.055-.054a.8.8 0 1 1 1.133 1.132l-.049.048-.116.13a2.121 2.121 0 0 0-.375 2.058l.022.111c.01.035.021.069.036.102A2.12 2.12 0 0 0 18.86 11H19a.8.8 0 0 1 0 1.6h-.072a2.121 2.121 0 0 0-1.943 1.285 2.117 2.117 0 0 0 .427 2.33l.054.055a.8.8 0 1 1-1.132 1.133l-.048-.049a2.123 2.123 0 0 0-2.345-.43 2.117 2.117 0 0 0-1.277 1.937V19a.8.8 0 0 1-1.6 0v-.072a2.128 2.128 0 0 0-1.238-1.897l-.15-.062c-.746-.33-1.672-.163-2.291.443l-.055.054a.8.8 0 1 1-1.133-1.132l.049-.048c.612-.626.78-1.552.43-2.345a2.117 2.117 0 0 0-1.937-1.277H4.6a.8.8 0 0 1 0-1.6h.072a2.128 2.128 0 0 0 1.897-1.238l.062-.15c.33-.746.163-1.672-.443-2.291l-.054-.055a.8.8 0 1 1 1.132-1.133l.048.049.13.116c.575.48 1.354.62 2.058.374l.111-.02a.8.8 0 0 0 .102-.037A2.12 2.12 0 0 0 11 4.74V4.6a.8.8 0 0 1 .8-.8Z"></path></mask><g mask="url(#svg-3658710139-__a)"><path fill="currentColor" d="M11.8 8.6a3.2 3.2 0 1 0 0 6.4 3.2 3.2 0 0 0 0-6.4Zm0 1.6a1.6 1.6 0 1 1 0 3.2 1.6 1.6 0 0 1 0-3.2Zm0-8a2.4 2.4 0 0 0-2.4 2.4v.136l-.008.086a.519.519 0 0 1-.161.293l-.064.048-.05.011a.8.8 0 0 0-.104.038.52.52 0 0 1-.574-.104l-.041-.042a2.4 2.4 0 1 0-3.395 3.396l.047.048a.517.517 0 0 1 .098.567c-.093.247-.281.382-.495.387H4.6a2.4 2.4 0 1 0 0 4.8h.136c.204 0 .391.125.473.315.089.202.048.43-.1.582l-.043.041a2.4 2.4 0 1 0 3.396 3.395l.048-.047a.517.517 0 0 1 .567-.098c.247.092.382.281.387.495V19a2.4 2.4 0 1 0 4.8 0v-.136c0-.204.125-.391.315-.473a.523.523 0 0 1 .582.1l.041.043a2.4 2.4 0 1 0 3.395-3.396l-.047-.048a.517.517 0 0 1-.098-.567.523.523 0 0 1 .48-.323H19a2.4 2.4 0 1 0 0-4.8h-.136l-.086-.008a.52.52 0 0 1-.293-.161l-.049-.064-.01-.05a.797.797 0 0 0-.038-.104.52.52 0 0 1 .104-.574l.042-.041a2.4 2.4 0 1 0-3.396-3.395l-.048.047a.517.517 0 0 1-.567.098.523.523 0 0 1-.323-.48V4.6a2.4 2.4 0 0 0-2.4-2.4Zm0 1.6a.8.8 0 0 1 .8.8v.072c.003.848.508 1.61 1.285 1.943a2.117 2.117 0 0 0 2.33-.427l.055-.054a.8.8 0 1 1 1.133 1.132l-.049.048-.116.13a2.121 2.121 0 0 0-.375 2.058l.022.111c.01.035.021.069.036.102A2.12 2.12 0 0 0 18.86 11H19a.8.8 0 0 1 0 1.6h-.072a2.121 2.121 0 0 0-1.943 1.285 2.117 2.117 0 0 0 .427 2.33l.054.055a.8.8 0 1 1-1.132 1.133l-.048-.049a2.123 2.123 0 0 0-2.345-.43 2.117 2.117 0 0 0-1.277 1.937V19a.8.8 0 0 1-1.6 0v-.072a2.128 2.128 0 0 0-1.238-1.897l-.15-.062c-.746-.33-1.672-.163-2.291.443l-.055.054a.8.8 0 1 1-1.133-1.132l.049-.048c.612-.626.78-1.552.43-2.345a2.117 2.117 0 0 0-1.937-1.277H4.6a.8.8 0 0 1 0-1.6h.072a2.128 2.128 0 0 0 1.897-1.238l.062-.15c.33-.746.163-1.672-.443-2.291l-.054-.055a.8.8 0 1 1 1.132-1.133l.048.049.13.116c.575.48 1.354.62 2.058.374l.111-.02a.8.8 0 0 0 .102-.037A2.12 2.12 0 0 0 11 4.74V4.6a.8.8 0 0 1 .8-.8Z"></path><path fill="#currentColor" d="M24 0H0v24h24V0Z"></path></g></svg>